<svg width="84" height="73" version="1.1" xmlns="http://www.w3.org/2000/svg" desc="Created with imagetracer.js version 1.2.6" ><path fill="rgb(47,47,47)" stroke="rgb(47,47,47)" stroke-width="1" opacity="1" d="M 6.5 5 L 5.5 7 L 6.5 5 Z " /><path fill="rgb(47,47,47)" stroke="rgb(47,47,47)" stroke-width="1" opacity="1" d="M 13.5 7 L 14 57.5 L 13 57.5 L 13.5 7 Z " /><path fill="rgb(47,47,47)" stroke="rgb(47,47,47)" stroke-width="1" opacity="1" d="M 67.5 14 L 52.5 30 L 67.5 14 Z " /><path fill="rgb(47,47,47)" stroke="rgb(47,47,47)" stroke-width="1" opacity="1" d="M 38.5 32 L 25.5 46 L 38.5 32 Z " /><path fill="rgb(47,47,47)" stroke="rgb(47,47,47)" stroke-width="1" opacity="1" d="M 40.5 32 L 48.5 41 L 40.5 32 Z " /><path fill="rgb(47,47,47)" stroke="rgb(47,47,47)" stroke-width="1" opacity="1" d="M 15.5 60 L 76 60.5 L 15.5 61 L 15.5 60 Z " /><path fill="rgb(221,221,221)" stroke="rgb(221,221,221)" stroke-width="1" opacity="1" d="M 66.5 14 L 51.5 30 L 66.5 14 Z " /><path fill="rgb(221,221,221)" stroke="rgb(221,221,221)" stroke-width="1" opacity="1" d="M 73.5 21 L 54.5 41 L 73.5 21 Z " /><path fill="rgb(221,221,221)" stroke="rgb(221,221,221)" stroke-width="1" opacity="1" d="M 39.5 32 L 27.5 45 L 39.5 32 Z " /><path fill="rgb(255,255,255)" stroke="rgb(255,255,255)" stroke-width="1" opacity="1" d="M 0 0 L 84 0 L 84 73 L 0 73 L 0 0 Z M 8 4 L 4 8 L 4 60 L 6 65 L 14 70 L 76 70 L 78 69 L 80 66 L 79 63 L 77 60 L 16 60 L 14 59 L 14 7 Q 13 3 8 4 Z M 69 13 L 52 29 L 41 20 L 37 21 L 18 41 L 19 45 L 23 47 L 28 45 L 40 33 L 50 42 L 55 41 L 74 22 L 75 17 Q 74 12 69 13 Z " /><path fill="rgb(0,0,0)" stroke="rgb(0,0,0)" stroke-width="1" opacity="1" d="M 7.5 5 Q 12 4 13 6.5 L 13 57.5 L 15.5 61 L 76.5 61 L 79 63.5 L 76.5 69 L 13.5 69 L 6 63.5 L 5 60.5 L 5 7.5 L 7.5 5 Z " /><path fill="rgb(0,0,0)" stroke="rgb(0,0,0)" stroke-width="1" opacity="1" d="M 68.5 14 Q 73.3 13.3 74 16.5 L 73 21.5 L 53.5 41 L 49.5 41 L 40.5 32 L 38.5 32 L 24.5 46 L 22.5 46 L 19 43.5 L 20 38.5 L 36.5 22 L 40.5 21 L 50.5 30 L 52.5 30 L 68.5 14 Z " /><path fill="rgb(145,145,145)" stroke="rgb(145,145,145)" stroke-width="1" opacity="1" d="M 4.5 8 L 5 59.5 L 4 59.5 L 4.5 8 Z " /><path fill="rgb(145,145,145)" stroke="rgb(145,145,145)" stroke-width="1" opacity="1" d="M 72.5 14 L 73.5 16 L 72.5 14 Z " /><path fill="rgb(145,145,145)" stroke="rgb(145,145,145)" stroke-width="1" opacity="1" d="M 74.5 17 L 75 19.5 L 74 19.5 L 74.5 17 Z " /><path fill="rgb(145,145,145)" stroke="rgb(145,145,145)" stroke-width="1" opacity="1" d="M 42.5 21 L 50.5 30 L 42.5 21 Z " /><path fill="rgb(145,145,145)" stroke="rgb(145,145,145)" stroke-width="1" opacity="1" d="M 35.5 22 L 20.5 38 L 35.5 22 Z " /><path fill="rgb(145,145,145)" stroke="rgb(145,145,145)" stroke-width="1" opacity="1" d="M 50.5 41 L 53 41.5 L 50.5 42 L 50.5 41 Z " /><path fill="rgb(145,145,145)" stroke="rgb(145,145,145)" stroke-width="1" opacity="1" d="M 19.5 44 L 20.5 46 L 19.5 44 Z " /><path fill="rgb(145,145,145)" stroke="rgb(145,145,145)" stroke-width="1" opacity="1" d="M 6.5 64 L 9.5 68 L 6.5 64 Z " /><path fill="rgb(145,145,145)" stroke="rgb(145,145,145)" stroke-width="1" opacity="1" d="M 78.5 67 L 77.5 69 L 78.5 67 Z " /><path fill="rgb(145,145,145)" stroke="rgb(145,145,145)" stroke-width="1" opacity="1" d="M 14.5 69 L 76 69.5 L 14.5 70 L 14.5 69 Z " /></svg>