<svg width="93" height="83" version="1.1" xmlns="http://www.w3.org/2000/svg" desc="Created with imagetracer.js version 1.2.6" ><path fill="rgb(76,76,76)" stroke="rgb(76,76,76)" stroke-width="1" opacity="1" d="M 60.5 7 L 62.5 9 L 71 9.5 L 62.5 10 L 60.5 7 Z " /><path fill="rgb(76,76,76)" stroke="rgb(76,76,76)" stroke-width="1" opacity="1" d="M 73.5 10 L 76.5 14 L 73.5 10 Z " /><path fill="rgb(76,76,76)" stroke="rgb(76,76,76)" stroke-width="1" opacity="1" d="M 72.5 17 L 71.5 19 L 72.5 17 Z " /><path fill="rgb(76,76,76)" stroke="rgb(76,76,76)" stroke-width="1" opacity="1" d="M 8.5 23 L 11 23.5 L 8.5 24 L 8.5 23 Z " /><path fill="rgb(76,76,76)" stroke="rgb(76,76,76)" stroke-width="1" opacity="1" d="M 12.5 24 L 13.5 26 L 12.5 24 Z " /><path fill="rgb(76,76,76)" stroke="rgb(76,76,76)" stroke-width="1" opacity="1" d="M 67.5 32 L 78 32.5 L 67.5 33 L 67.5 32 Z " /><path fill="rgb(76,76,76)" stroke="rgb(76,76,76)" stroke-width="1" opacity="1" d="M 13.5 40 L 15 41.5 L 15 75.5 L 14 75.5 L 14 41.5 L 13.5 40 Z " /><path fill="rgb(76,76,76)" stroke="rgb(76,76,76)" stroke-width="1" opacity="1" d="M 64.5 41 L 66 42.5 L 66 75.5 L 65 75.5 L 65 42.5 L 64.5 41 Z " /><path fill="rgb(171,171,171)" stroke="rgb(171,171,171)" stroke-width="1" opacity="1" d="M 52.5 11 L 53 13.5 L 52 13.5 L 52.5 11 Z " /><path fill="rgb(171,171,171)" stroke="rgb(171,171,171)" stroke-width="1" opacity="1" d="M 71.5 14 L 73 16.5 L 72 16.5 L 71.5 14 Z " /><path fill="rgb(171,171,171)" stroke="rgb(171,171,171)" stroke-width="1" opacity="1" d="M 87.5 14 L 88.5 16 L 87.5 14 Z " /><path fill="rgb(171,171,171)" stroke="rgb(171,171,171)" stroke-width="1" opacity="1" d="M 51.5 17 L 52 19.5 L 51 19.5 L 51.5 17 Z " /><path fill="rgb(171,171,171)" stroke="rgb(171,171,171)" stroke-width="1" opacity="1" d="M 7.5 23 L 5.5 26 L 7.5 23 Z " /><path fill="rgb(171,171,171)" stroke="rgb(171,171,171)" stroke-width="1" opacity="1" d="M 50.5 23 L 51 25.5 L 50 25.5 L 50.5 23 Z " /><path fill="rgb(171,171,171)" stroke="rgb(171,171,171)" stroke-width="1" opacity="1" d="M 86.5 28 L 85.5 30 L 86.5 28 Z " /><path fill="rgb(171,171,171)" stroke="rgb(171,171,171)" stroke-width="1" opacity="1" d="M 15.5 30 L 16.5 32 L 15.5 30 Z " /><path fill="rgb(171,171,171)" stroke="rgb(171,171,171)" stroke-width="1" opacity="1" d="M 19.5 32 L 50 32.5 L 19.5 33 L 19.5 32 Z " /><path fill="rgb(171,171,171)" stroke="rgb(171,171,171)" stroke-width="1" opacity="1" d="M 28 58 L 30 58.5 L 29 59.5 L 28.5 76 L 28 58 Z " /><path fill="rgb(171,171,171)" stroke="rgb(171,171,171)" stroke-width="1" opacity="1" d="M 50.5 58 L 52 58.5 L 52 75.5 L 51 75.5 L 51 59.5 L 50.5 58 Z " /><path fill="rgb(171,171,171)" stroke="rgb(171,171,171)" stroke-width="1" opacity="1" d="M 35.5 60 L 44 60.5 L 35.5 61 L 35.5 60 Z " /><path fill="rgb(171,171,171)" stroke="rgb(171,171,171)" stroke-width="1" opacity="1" d="M 27.5 77 L 26.5 79 L 27.5 77 Z " /><path fill="rgb(171,171,171)" stroke="rgb(171,171,171)" stroke-width="1" opacity="1" d="M 52.5 77 L 53.5 79 L 52.5 77 Z " /><path fill="rgb(171,171,171)" stroke="rgb(171,171,171)" stroke-width="1" opacity="1" d="M 64.5 77 L 63.5 79 L 64.5 77 Z " /><path fill="rgb(171,171,171)" stroke="rgb(171,171,171)" stroke-width="1" opacity="1" d="M 18.5 79 L 24 79.5 L 18.5 80 L 18.5 79 Z " /><path fill="rgb(171,171,171)" stroke="rgb(171,171,171)" stroke-width="1" opacity="1" d="M 56.5 79 L 61 79.5 L 56.5 80 L 56.5 79 Z " /><path fill="rgb(255,255,255)" stroke="rgb(255,255,255)" stroke-width="1" opacity="1" d="M 0 0 L 93 0 L 93 83 L 0 83 L 0 0 Z M 57 4 L 54 5 L 52 12 L 50 28 L 66 37 L 67 37 L 67 33 L 80 33 L 86 30 Q 91 26 89 16 L 88 14 L 78 14 L 72 9 L 63 9 L 60 5 L 57 4 Z M 8 23 L 5 26 Q 4 33 7 36 L 13 40 L 14 42 L 14 77 L 19 80 L 27 79 L 29 76 L 29 59 L 36 61 L 44 61 L 51 59 L 51 76 L 52 78 L 57 80 L 64 79 L 66 76 L 66 43 L 50 32 L 18 32 Q 14 30 14 26 Q 13 22 8 23 Z " /><path fill="rgb(255,255,255)" stroke="rgb(255,255,255)" stroke-width="1" opacity="1" d="M 69.5 14 L 72 15.5 Q 73.3 19.3 69.5 18 L 68 15.5 L 69.5 14 Z " /><path fill="rgb(0,0,0)" stroke="rgb(0,0,0)" stroke-width="1" opacity="1" d="M 55.5 5 Q 59.3 4.3 60 6.5 L 62.5 10 L 72.5 10 L 76.5 14 L 86.5 14 L 89 16.5 Q 89.8 26.3 84.5 30 L 80.5 32 L 67 32 L 65.5 36 L 51 27.5 L 53 10.5 L 55.5 5 Z M 68 14 L 68 18 L 72 19 L 73 16 Q 72 13 68 14 Z " /><path fill="rgb(0,0,0)" stroke="rgb(0,0,0)" stroke-width="1" opacity="1" d="M 7.5 24 Q 13 23 14 26.5 L 16.5 32 L 18.5 33 L 50.5 33 L 65 42.5 L 65 76.5 L 62.5 79 Q 54 81 52 76.5 L 52 58.5 L 49.5 58 Q 44.8 61.8 34.5 60 L 28 58 L 28 76.5 L 26.5 78 L 17.5 79 L 15 76.5 L 15 41.5 L 13.5 40 L 9 38 Q 5.8 34.4 5 27.5 L 7.5 24 Z " /></svg>