<?xml version="1.0" standalone="no"?>
<!DOCTYPE svg PUBLIC "-//W3C//DTD SVG 20010904//EN"
 "http://www.w3.org/TR/2001/REC-SVG-20010904/DTD/svg10.dtd">
<svg version="1.0" xmlns="http://www.w3.org/2000/svg"
 width="512.000000pt" height="512.000000pt" viewBox="0 0 512.000000 512.000000"
 preserveAspectRatio="xMidYMid meet">

<g transform="translate(0.000000,512.000000) scale(0.100000,-0.100000)"
fill="#000000" stroke="none">
<path d="M1299 4470 c-226 -26 -510 -107 -762 -218 -188 -83 -256 -123 -332
-193 -82 -77 -131 -152 -169 -259 l-31 -85 -3 -1532 c-1 -843 0 -1533 3 -1533
3 0 88 38 188 84 369 170 670 263 1007 310 380 53 557 27 1360 -199 331 -93
543 -144 735 -177 184 -31 506 -31 715 1 347 53 711 158 1023 297 l87 39 -2
1375 -3 1375 -27 73 c-74 204 -228 352 -428 413 -120 37 -251 32 -405 -14
-476 -145 -595 -169 -825 -170 -226 -1 -389 32 -768 154 -119 38 -280 90 -357
115 -176 56 -342 99 -493 125 -132 23 -391 33 -513 19z m413 -435 c146 -22
306 -65 629 -170 636 -207 813 -242 1149 -232 255 7 437 43 781 152 167 53
222 62 273 45 48 -16 102 -63 127 -111 18 -37 19 -70 19 -1237 l0 -1199 -142
-47 c-351 -113 -636 -166 -903 -166 -257 0 -429 34 -1039 206 -619 174 -829
214 -1126 214 -286 0 -561 -46 -907 -150 -72 -22 -134 -40 -137 -40 -3 0 -6
527 -6 1170 0 1270 -3 1209 53 1268 43 47 302 165 497 226 96 31 260 68 345
79 76 10 299 5 387 -8z"/>
<path d="M1001 3615 c-61 -19 -118 -78 -137 -140 -30 -102 13 -202 107 -249
88 -44 176 -30 245 39 155 155 -5 418 -215 350z"/>
<path d="M2385 3396 c-166 -38 -305 -115 -426 -235 -167 -168 -249 -364 -249
-601 0 -121 16 -203 59 -315 101 -263 356 -472 636 -524 75 -14 235 -14 310 0
157 29 341 127 452 241 112 116 196 272 229 428 16 78 18 244 3 325 -43 231
-204 461 -407 580 -40 23 -116 57 -170 75 -88 30 -110 33 -237 36 -94 3 -160
-1 -200 -10z m321 -437 c189 -71 306 -266 275 -460 -38 -233 -257 -396 -482
-360 -233 38 -396 257 -360 482 36 224 235 382 456 362 33 -3 83 -14 111 -24z"/>
<path d="M3982 3189 c-19 -6 -53 -30 -77 -53 -70 -70 -83 -155 -39 -245 67
-134 244 -158 342 -45 146 165 -11 404 -226 343z"/>
<path d="M1008 2338 c-21 -5 -58 -28 -82 -50 -113 -98 -89 -275 45 -342 88
-44 176 -30 245 39 152 152 0 411 -208 353z"/>
<path d="M3982 1909 c-19 -6 -53 -30 -77 -53 -70 -70 -83 -155 -39 -245 67
-134 244 -158 342 -45 146 165 -11 404 -226 343z"/>
</g>
</svg>
