<svg width="77" height="80" version="1.1" xmlns="http://www.w3.org/2000/svg" desc="Created with imagetracer.js version 1.2.6" ><path fill="rgb(215,215,215)" stroke="rgb(215,215,215)" stroke-width="1" opacity="1" d="M 55.5 8 L 58.5 12 L 55.5 8 Z " /><path fill="rgb(215,215,215)" stroke="rgb(215,215,215)" stroke-width="1" opacity="1" d="M 20.5 11 L 18.5 14 L 20.5 11 Z " /><path fill="rgb(215,215,215)" stroke="rgb(215,215,215)" stroke-width="1" opacity="1" d="M 47.5 11 L 46.5 13 L 47.5 11 Z " /><path fill="rgb(215,215,215)" stroke="rgb(215,215,215)" stroke-width="1" opacity="1" d="M 34.5 33 L 35.5 35 L 34.5 33 Z " /><path fill="rgb(215,215,215)" stroke="rgb(215,215,215)" stroke-width="1" opacity="1" d="M 5.5 39 L 6 45.5 L 5 45.5 L 5.5 39 Z " /><path fill="rgb(215,215,215)" stroke="rgb(215,215,215)" stroke-width="1" opacity="1" d="M 55.5 45 L 56 49.5 L 55 49.5 L 55.5 45 Z " /><path fill="rgb(215,215,215)" stroke="rgb(215,215,215)" stroke-width="1" opacity="1" d="M 65.5 63 L 64.5 65 L 65.5 63 Z " /><path fill="rgb(215,215,215)" stroke="rgb(215,215,215)" stroke-width="1" opacity="1" d="M 13.5 64 L 17.5 69 L 13.5 64 Z " /><path fill="rgb(215,215,215)" stroke="rgb(215,215,215)" stroke-width="1" opacity="1" d="M 60.5 68 L 59.5 70 L 60.5 68 Z " /><path fill="rgb(215,215,215)" stroke="rgb(215,215,215)" stroke-width="1" opacity="1" d="M 37.5 76 L 42 76.5 L 37.5 77 L 37.5 76 Z " /><path fill="rgb(0,0,0)" stroke="rgb(0,0,0)" stroke-width="1" opacity="1" d="M 30.5 2 Q 37.6 2.9 40 8.5 L 45.5 15 L 51.5 8 L 54.5 8 L 59 12.5 Q 66.6 21.4 71 33.5 L 72 48.5 Q 69.1 62.1 59.5 69 Q 51.2 76.7 34.5 76 Q 21.3 73.2 14 64.5 Q 5.3 56.2 6 38.5 Q 13.2 15.2 30.5 2 Z M 31 31 L 22 44 Q 21 51 24 55 L 30 60 L 39 63 L 46 62 L 50 60 L 56 52 Q 58 41 53 38 L 47 43 L 47 44 L 43 44 L 34 33 Q 35 29 31 31 Z " /><path fill="rgb(106,106,106)" stroke="rgb(106,106,106)" stroke-width="1" opacity="1" d="M 29.5 2 L 21.5 11 L 29.5 2 Z " /><path fill="rgb(106,106,106)" stroke="rgb(106,106,106)" stroke-width="1" opacity="1" d="M 50.5 8 L 48.5 11 L 50.5 8 Z " /><path fill="rgb(106,106,106)" stroke="rgb(106,106,106)" stroke-width="1" opacity="1" d="M 40.5 9 L 43.5 13 L 40.5 9 Z " /><path fill="rgb(106,106,106)" stroke="rgb(106,106,106)" stroke-width="1" opacity="1" d="M 59.5 13 L 60.5 15 L 59.5 13 Z " /><path fill="rgb(106,106,106)" stroke="rgb(106,106,106)" stroke-width="1" opacity="1" d="M 17.5 15 L 16.5 17 L 17.5 15 Z " /><path fill="rgb(106,106,106)" stroke="rgb(106,106,106)" stroke-width="1" opacity="1" d="M 15.5 18 L 14.5 20 L 15.5 18 Z " /><path fill="rgb(106,106,106)" stroke="rgb(106,106,106)" stroke-width="1" opacity="1" d="M 13.5 21 L 12.5 23 L 13.5 21 Z " /><path fill="rgb(106,106,106)" stroke="rgb(106,106,106)" stroke-width="1" opacity="1" d="M 30.5 31 L 28.5 34 L 30.5 31 Z " /><path fill="rgb(106,106,106)" stroke="rgb(106,106,106)" stroke-width="1" opacity="1" d="M 36.5 35 L 38.5 38 L 36.5 35 Z " /><path fill="rgb(106,106,106)" stroke="rgb(106,106,106)" stroke-width="1" opacity="1" d="M 26.5 36 L 25.5 38 L 26.5 36 Z " /><path fill="rgb(106,106,106)" stroke="rgb(106,106,106)" stroke-width="1" opacity="1" d="M 51.5 38 L 53 38.5 L 47.5 43 L 51.5 38 Z " /><path fill="rgb(106,106,106)" stroke="rgb(106,106,106)" stroke-width="1" opacity="1" d="M 72.5 39 L 73 45.5 L 72 45.5 L 72.5 39 Z " /><path fill="rgb(106,106,106)" stroke="rgb(106,106,106)" stroke-width="1" opacity="1" d="M 40.5 40 L 42.5 43 L 40.5 40 Z " /><path fill="rgb(106,106,106)" stroke="rgb(106,106,106)" stroke-width="1" opacity="1" d="M 22.5 43 L 23 49.5 L 22 49.5 L 22.5 43 Z " /><path fill="rgb(106,106,106)" stroke="rgb(106,106,106)" stroke-width="1" opacity="1" d="M 53.5 55 L 49.5 60 L 53.5 55 Z " /><path fill="rgb(106,106,106)" stroke="rgb(106,106,106)" stroke-width="1" opacity="1" d="M 12.5 62 L 13.5 64 L 12.5 62 Z " /><path fill="rgb(106,106,106)" stroke="rgb(106,106,106)" stroke-width="1" opacity="1" d="M 63.5 65 L 61.5 68 L 63.5 65 Z " /><path fill="rgb(106,106,106)" stroke="rgb(106,106,106)" stroke-width="1" opacity="1" d="M 19.5 69 L 20.5 71 L 19.5 69 Z " /><path fill="rgb(106,106,106)" stroke="rgb(106,106,106)" stroke-width="1" opacity="1" d="M 58.5 69 L 57.5 71 L 58.5 69 Z " /><path fill="rgb(106,106,106)" stroke="rgb(106,106,106)" stroke-width="1" opacity="1" d="M 44.5 75 L 47 75.5 L 44.5 76 L 44.5 75 Z " /><path fill="rgb(255,255,255)" stroke="rgb(255,255,255)" stroke-width="1" opacity="1" d="M 0 0 L 77 0 L 77 80 L 0 80 L 0 0 Z M 31 1 Q 19 10 11 24 L 5 40 L 6 51 L 13 65 L 22 72 L 28 75 L 38 77 Q 52 77 60 70 Q 70 62 73 48 L 73 39 L 71 32 L 59 12 L 54 7 L 51 8 L 46 14 L 33 1 L 31 1 Z " /><path fill="rgb(255,255,255)" stroke="rgb(255,255,255)" stroke-width="1" opacity="1" d="M 31.5 31 L 34 32 L 44.5 45 L 52.5 39 Q 56.9 42.1 55 51.5 L 49.5 59 Q 45.4 62.9 36.5 62 Q 29.8 60.8 26 56.5 Q 21.8 52.7 23 43.5 L 31.5 31 Z " /></svg>