<svg width="26" height="69" version="1.1" xmlns="http://www.w3.org/2000/svg" desc="Created with imagetracer.js version 1.2.6" ><path fill="rgb(223,223,223)" stroke="rgb(223,223,223)" stroke-width="1" opacity="1" d="M 22.5 11 L 20.5 14 L 22.5 11 Z " /><path fill="rgb(223,223,223)" stroke="rgb(223,223,223)" stroke-width="1" opacity="1" d="M 14.5 14 L 18 14.5 L 14.5 15 L 14.5 14 Z " /><path fill="rgb(223,223,223)" stroke="rgb(223,223,223)" stroke-width="1" opacity="1" d="M 19.5 24 L 20.5 26 L 19.5 24 Z " /><path fill="rgb(223,223,223)" stroke="rgb(223,223,223)" stroke-width="1" opacity="1" d="M 21.5 27 L 22 60 L 26 60.5 L 21 61 L 21.5 27 Z " /><path fill="rgb(223,223,223)" stroke="rgb(223,223,223)" stroke-width="1" opacity="1" d="M 5.5 60 L 11 60.5 L 5.5 61 L 5.5 60 Z " /><path fill="rgb(255,255,255)" stroke="rgb(255,255,255)" stroke-width="1" opacity="1" d="M 0 0 L 13 0.5 Q 7.8 1.7 9 9.5 L 12.5 14 L 17.5 15 L 23 11.5 L 24 5.5 L 20 0.5 L 26 0 L 26 59.5 L 22 60 L 22 27.5 L 19.5 24 L 17.5 23 L 5.5 23 L 3 24 L 2 30.5 Q 3.9 34.8 11 33 L 11 59.5 Q 10.9 60.6 5.5 60 L 3 61 L 2 67.5 L 2.5 69 L 0 68.5 L 0 0 Z " /><path fill="rgb(151,151,151)" stroke="rgb(151,151,151)" stroke-width="1" opacity="1" d="M 20.5 1 L 22.5 4 L 20.5 1 Z " /><path fill="rgb(151,151,151)" stroke="rgb(151,151,151)" stroke-width="1" opacity="1" d="M 23.5 6 L 24 8.5 L 23 8.5 L 23.5 6 Z " /><path fill="rgb(151,151,151)" stroke="rgb(151,151,151)" stroke-width="1" opacity="1" d="M 6.5 23 L 17 23.5 L 6.5 24 L 6.5 23 Z " /><path fill="rgb(151,151,151)" stroke="rgb(151,151,151)" stroke-width="1" opacity="1" d="M 11.5 33 L 12 60.5 L 11 60.5 L 11.5 33 Z " /><path fill="rgb(46,46,46)" stroke="rgb(46,46,46)" stroke-width="1" opacity="1" d="M 22.5 10 L 20.5 13 L 22.5 10 Z " /><path fill="rgb(46,46,46)" stroke="rgb(46,46,46)" stroke-width="1" opacity="1" d="M 4.5 24 L 3.5 26 L 4.5 24 Z " /><path fill="rgb(46,46,46)" stroke="rgb(46,46,46)" stroke-width="1" opacity="1" d="M 6.5 32 L 12 32.5 L 6.5 33 L 6.5 32 Z " /><path fill="rgb(46,46,46)" stroke="rgb(46,46,46)" stroke-width="1" opacity="1" d="M 2.5 64 L 3 66.5 L 2 66.5 L 2.5 64 Z " /><path fill="rgb(0,0,0)" stroke="rgb(0,0,0)" stroke-width="1" opacity="1" d="M 13.5 1 Q 20 0 22 3.5 L 23 9.5 L 18.5 14 L 14.5 14 L 11 11.5 L 10 4.5 L 13.5 1 Z " /><path fill="rgb(0,0,0)" stroke="rgb(0,0,0)" stroke-width="1" opacity="1" d="M 5.5 24 L 17.5 24 L 20 25 L 21 27.5 L 21 61 L 26 61 L 26 69 L 4.5 69 L 3 67.5 Q 2 62 5.5 61 Q 11.8 61.8 12 60.5 L 12 32 L 4.5 32 L 3 30.5 Q 2 25 5.5 24 Z " /></svg>