<svg width="52" height="84" version="1.1" xmlns="http://www.w3.org/2000/svg" desc="Created with imagetracer.js version 1.2.6" ><path fill="rgb(226,226,226)" stroke="rgb(226,226,226)" stroke-width="1" opacity="1" d="M 34.5 12 L 35 14.5 L 34 14.5 L 34.5 12 Z " /><path fill="rgb(226,226,226)" stroke="rgb(226,226,226)" stroke-width="1" opacity="1" d="M 33.5 17 L 31.5 20 L 33.5 17 Z " /><path fill="rgb(226,226,226)" stroke="rgb(226,226,226)" stroke-width="1" opacity="1" d="M 15.5 28 L 14.5 30 L 15.5 28 Z " /><path fill="rgb(226,226,226)" stroke="rgb(226,226,226)" stroke-width="1" opacity="1" d="M 40.5 30 L 41.5 32 L 40.5 30 Z " /><path fill="rgb(226,226,226)" stroke="rgb(226,226,226)" stroke-width="1" opacity="1" d="M 43.5 35 L 44.5 37 L 43.5 35 Z " /><path fill="rgb(226,226,226)" stroke="rgb(226,226,226)" stroke-width="1" opacity="1" d="M 46.5 40 L 47.5 42 L 46.5 40 Z " /><path fill="rgb(226,226,226)" stroke="rgb(226,226,226)" stroke-width="1" opacity="1" d="M 16.5 45 L 17 77.5 L 16 77.5 L 16.5 45 Z " /><path fill="rgb(226,226,226)" stroke="rgb(226,226,226)" stroke-width="1" opacity="1" d="M 38.5 46 L 39.5 48 L 38.5 46 Z " /><path fill="rgb(226,226,226)" stroke="rgb(226,226,226)" stroke-width="1" opacity="1" d="M 4.5 51 L 5.5 53 L 4.5 51 Z " /><path fill="rgb(226,226,226)" stroke="rgb(226,226,226)" stroke-width="1" opacity="1" d="M 41.5 51 L 42.5 53 L 41.5 51 Z " /><path fill="rgb(226,226,226)" stroke="rgb(226,226,226)" stroke-width="1" opacity="1" d="M 7.5 53 L 10 53.5 L 7.5 54 L 7.5 53 Z " /><path fill="rgb(226,226,226)" stroke="rgb(226,226,226)" stroke-width="1" opacity="1" d="M 44.5 53 L 47 53.5 L 44.5 54 L 44.5 53 Z " /><path fill="rgb(226,226,226)" stroke="rgb(226,226,226)" stroke-width="1" opacity="1" d="M 17.5 79 L 18.5 81 L 17.5 79 Z " /><path fill="rgb(226,226,226)" stroke="rgb(226,226,226)" stroke-width="1" opacity="1" d="M 25.5 79 L 24.5 81 L 25.5 79 Z " /><path fill="rgb(226,226,226)" stroke="rgb(226,226,226)" stroke-width="1" opacity="1" d="M 20.5 81 L 23 81.5 L 20.5 82 L 20.5 81 Z " /><path fill="rgb(255,255,255)" stroke="rgb(255,255,255)" stroke-width="1" opacity="1" d="M 0 0 L 52 0 L 52 84 L 0 84 L 0 0 Z M 26 6 L 20 11 Q 19 20 25 21 L 32 20 L 35 15 L 33 8 L 26 6 Z M 22 25 L 16 28 L 4 47 L 4 52 L 8 54 L 12 53 L 16 47 L 16 78 L 17 80 L 21 82 L 25 81 L 26 80 L 26 58 L 28 59 L 28 79 L 33 82 L 36 81 L 38 79 L 39 47 L 41 52 L 45 54 L 49 53 L 51 50 L 42 32 Q 38 22 22 25 Z " /><path fill="rgb(0,0,0)" stroke="rgb(0,0,0)" stroke-width="1" opacity="1" d="M 25.5 7 Q 31.7 6.3 33 10.5 L 34 14.5 L 32 19 Q 29.9 20.6 24.5 20 Q 19.7 18.8 21 11.5 L 23.5 8 L 25.5 7 Z " /><path fill="rgb(0,0,0)" stroke="rgb(0,0,0)" stroke-width="1" opacity="1" d="M 20.5 26 L 33.5 26 L 40 30.5 L 48 43.5 L 50 49.5 L 49 52 L 44.5 53 L 37.5 44 L 37 78.5 L 34.5 81 L 29 78.5 L 29 58.5 L 27.5 57 L 26 57.5 L 26 77.5 Q 25.5 81.5 20.5 81 L 18 80 L 17 77.5 L 16.5 44 L 12 52 L 7.5 53 Q 4 52 5 46.5 L 13 32.5 L 18.5 27 L 20.5 26 Z " /><path fill="rgb(49,49,49)" stroke="rgb(49,49,49)" stroke-width="1" opacity="1" d="M 31.5 8 L 32.5 10 L 31.5 8 Z " /><path fill="rgb(49,49,49)" stroke="rgb(49,49,49)" stroke-width="1" opacity="1" d="M 20.5 12 L 21 14.5 L 20 14.5 L 20.5 12 Z " /><path fill="rgb(49,49,49)" stroke="rgb(49,49,49)" stroke-width="1" opacity="1" d="M 24.5 25 L 31 25.5 L 24.5 26 L 24.5 25 Z " /><path fill="rgb(49,49,49)" stroke="rgb(49,49,49)" stroke-width="1" opacity="1" d="M 36.5 27 L 37.5 29 L 36.5 27 Z " /><path fill="rgb(49,49,49)" stroke="rgb(49,49,49)" stroke-width="1" opacity="1" d="M 16.5 28 L 14.5 31 L 16.5 28 Z " /><path fill="rgb(49,49,49)" stroke="rgb(49,49,49)" stroke-width="1" opacity="1" d="M 16.5 44 L 15.5 46 L 16.5 44 Z " /><path fill="rgb(49,49,49)" stroke="rgb(49,49,49)" stroke-width="1" opacity="1" d="M 4.5 47 L 5 49.5 L 4 49.5 L 4.5 47 Z " /><path fill="rgb(49,49,49)" stroke="rgb(49,49,49)" stroke-width="1" opacity="1" d="M 24.5 79 L 23.5 81 L 24.5 79 Z " /><path fill="rgb(138,138,138)" stroke="rgb(138,138,138)" stroke-width="1" opacity="1" d="M 22.5 8 L 21.5 10 L 22.5 8 Z " /><path fill="rgb(138,138,138)" stroke="rgb(138,138,138)" stroke-width="1" opacity="1" d="M 25.5 20 L 29 20.5 L 25.5 21 L 25.5 20 Z " /><path fill="rgb(138,138,138)" stroke="rgb(138,138,138)" stroke-width="1" opacity="1" d="M 38.5 28 L 39.5 30 L 38.5 28 Z " /><path fill="rgb(138,138,138)" stroke="rgb(138,138,138)" stroke-width="1" opacity="1" d="M 12.5 33 L 11.5 35 L 12.5 33 Z " /><path fill="rgb(138,138,138)" stroke="rgb(138,138,138)" stroke-width="1" opacity="1" d="M 9.5 38 L 8.5 40 L 9.5 38 Z " /><path fill="rgb(138,138,138)" stroke="rgb(138,138,138)" stroke-width="1" opacity="1" d="M 6.5 43 L 5.5 45 L 6.5 43 Z " /><path fill="rgb(138,138,138)" stroke="rgb(138,138,138)" stroke-width="1" opacity="1" d="M 37 45 L 39 45.5 L 38 46.5 L 37.5 78 L 37 45 Z " /><path fill="rgb(138,138,138)" stroke="rgb(138,138,138)" stroke-width="1" opacity="1" d="M 28.5 58 L 29 77.5 L 28 77.5 L 28.5 58 Z " /><path fill="rgb(138,138,138)" stroke="rgb(138,138,138)" stroke-width="1" opacity="1" d="M 29.5 79 L 30.5 81 L 29.5 79 Z " /><path fill="rgb(138,138,138)" stroke="rgb(138,138,138)" stroke-width="1" opacity="1" d="M 36.5 79 L 35.5 81 L 36.5 79 Z " /></svg>