<svg width="76" height="77" version="1.1" xmlns="http://www.w3.org/2000/svg" desc="Created with imagetracer.js version 1.2.6" ><path fill="rgb(0,0,0)" stroke="rgb(0,0,0)" stroke-width="1" opacity="1" d="M 37.5 2 Q 42.3 1.3 43 4.5 L 52 24 L 70.5 26 L 76 28.5 L 76 34.5 L 66.5 44 L 61 48.5 L 64 73.5 Q 63.3 76.8 58.5 76 L 40.5 66 L 37.5 66 L 19.5 76 L 16.5 76 Q 12 74 14 65.5 Q 17 59 17 49.5 L 1 33.5 L 1 28 L 7.5 26 L 24.5 24 L 27 21.5 L 35 3 L 37.5 2 Z " /><path fill="rgb(218,218,218)" stroke="rgb(218,218,218)" stroke-width="1" opacity="1" d="M 75.5 35 L 72.5 39 L 75.5 35 Z " /><path fill="rgb(218,218,218)" stroke="rgb(218,218,218)" stroke-width="1" opacity="1" d="M 5.5 38 L 17 50.5 L 16 50.5 L 5.5 38 Z " /><path fill="rgb(218,218,218)" stroke="rgb(218,218,218)" stroke-width="1" opacity="1" d="M 63.5 74 L 62.5 76 L 63.5 74 Z " /><path fill="rgb(255,255,255)" stroke="rgb(255,255,255)" stroke-width="1" opacity="1" d="M 0 0 L 76 0 L 76 26.5 L 74.5 26 L 68.5 26 L 52 23 L 44 4.5 L 40.5 1 L 35 2 L 24.5 23 L 1 27 L 0.5 29 L 0 0 Z " /><path fill="rgb(255,255,255)" stroke="rgb(255,255,255)" stroke-width="1" opacity="1" d="M 0.5 33 L 16 49.5 L 16 54.5 L 13 67.5 L 13 73.5 L 17 76.5 L 0 77 L 0.5 33 Z " /><path fill="rgb(255,255,255)" stroke="rgb(255,255,255)" stroke-width="1" opacity="1" d="M 75.5 36 L 76 77 L 61 76.5 L 64 74.5 L 65 69.5 L 61 49.5 L 75.5 36 Z " /><path fill="rgb(255,255,255)" stroke="rgb(255,255,255)" stroke-width="1" opacity="1" d="M 38.5 66 L 59 76.5 L 19.5 77 L 19.5 76 L 38.5 66 Z " /><path fill="rgb(123,123,123)" stroke="rgb(123,123,123)" stroke-width="1" opacity="1" d="M 41.5 2 L 42.5 4 L 41.5 2 Z " /><path fill="rgb(123,123,123)" stroke="rgb(123,123,123)" stroke-width="1" opacity="1" d="M 17.5 24 L 20 24.5 L 17.5 25 L 17.5 24 Z " /><path fill="rgb(123,123,123)" stroke="rgb(123,123,123)" stroke-width="1" opacity="1" d="M 57.5 24 L 60 24.5 L 57.5 25 L 57.5 24 Z " /><path fill="rgb(123,123,123)" stroke="rgb(123,123,123)" stroke-width="1" opacity="1" d="M 11.5 25 L 14 25.5 L 11.5 26 L 11.5 25 Z " /><path fill="rgb(123,123,123)" stroke="rgb(123,123,123)" stroke-width="1" opacity="1" d="M 64.5 25 L 67 25.5 L 64.5 26 L 64.5 25 Z " /><path fill="rgb(123,123,123)" stroke="rgb(123,123,123)" stroke-width="1" opacity="1" d="M 4.5 26 L 7 26.5 L 4.5 27 L 4.5 26 Z " /><path fill="rgb(123,123,123)" stroke="rgb(123,123,123)" stroke-width="1" opacity="1" d="M 0.5 29 L 1 32.5 L 0 32.5 L 0.5 29 Z " /><path fill="rgb(123,123,123)" stroke="rgb(123,123,123)" stroke-width="1" opacity="1" d="M 1.5 34 L 4.5 38 L 1.5 34 Z " /><path fill="rgb(123,123,123)" stroke="rgb(123,123,123)" stroke-width="1" opacity="1" d="M 65.5 44 L 61.5 49 L 65.5 44 Z " /><path fill="rgb(123,123,123)" stroke="rgb(123,123,123)" stroke-width="1" opacity="1" d="M 16.5 51 L 17 53.5 L 16 53.5 L 16.5 51 Z " /><path fill="rgb(123,123,123)" stroke="rgb(123,123,123)" stroke-width="1" opacity="1" d="M 15.5 57 L 16 59.5 L 15 59.5 L 15.5 57 Z " /><path fill="rgb(123,123,123)" stroke="rgb(123,123,123)" stroke-width="1" opacity="1" d="M 13.5 69 L 14 72.5 L 13 72.5 L 13.5 69 Z " /><path fill="rgb(123,123,123)" stroke="rgb(123,123,123)" stroke-width="1" opacity="1" d="M 14.5 74 L 15.5 76 L 14.5 74 Z " /></svg>